# xmcd
#
# Track frame offsets: 
#        180
#        13435
#        26769
#        39964
#        51681
#        65761
#        79216
#        92520
#        106236
#        119284
#        126574
#        140292
#        151823
#        165876
#        180426
#        193897
#        205597
#        218780
#
# Disc length: 3106 seconds
#
# Revision: 1
# Processed by: cddbd v1.5.2PL0 Copyright (c) Steve Scherf et al.
# Submitted via: ExactAudioCopyFreeDBPlugin 1.0
#
DISCID=fb0c2012
DTITLE=Various Artist - The Voices Of The Great Divas [CD 2)
DYEAR=2005
DGENRE=
TTITLE0=Ella Fitzgerald - Little White Lies
TTITLE1=Peggy Lee - Bubble-Loo, Bubble-Loo
TTITLE2=Sarah Vaughan - Don't Worry 'about Me
TTITLE3=Ella Fitzgerald - A-Tisket, A-Tisket
TTITLE4=Patti Page - Mister and Mississippi
TTITLE5=Jo Stafford - Congratulations
TTITLE6=Ella Fitzgerald - It's Wonderful
TTITLE7=Gracie Fields - Gypsy Lullaby
TTITLE8=Dinah Washington - My Song
TTITLE9=Rosemary Clooney - This Can't Be Love
TTITLE10=Dinah Shore - Anniversary Song
TTITLE11=Billie Holiday - Be Fair With My Baby
TTITLE12=Alma Cogan - Meet Me On The Corner
TTITLE13=Peggy Lee - When The World Was Young
TTITLE14=Billie Holiday - Foolin' Myself
TTITLE15=Dinah Washington - Ain't Goin' To Cry No More
TTITLE16=Judy Garland - Our Love Affair
TTITLE17=Anita O'Day - Slow Down
EXTD=
EXTT0=
EXTT1=
EXTT2=
EXTT3=
EXTT4=
EXTT5=
EXTT6=
EXTT7=
EXTT8=
EXTT9=
EXTT10=
EXTT11=
EXTT12=
EXTT13=
EXTT14=
EXTT15=
EXTT16=
EXTT17=
PLAYORDER=
